# xmcd CD database file
#
# Track frame offsets:
#	175
#	23300
#	40062
#	65737
#	89362
#	111237
#	128562
#	147887
#	169312
#	190650
#
# Disc length: 2862 seconds
#
# Revision: 0
# Processed by: cddbd v1.5.1PL0 Copyright (c) Steve Scherf et al.
# Submitted via: CDex 1.50
#
DISCID=7f0b2c0a
DTITLE=Воскресенье - До свидания
DYEAR=1993
DGENRE=Blues
TTITLE0=Молитва
TTITLE1=Скрипач
TTITLE2=День лугов
TTITLE3=Степной волк
TTITLE4=Ветер дует
TTITLE5=Стая
TTITLE6=Милый друг
TTITLE7=Роса
TTITLE8=Колыбельная
TTITLE9=Молитва
EXTD=YEAR: 1993
EXTT0=
EXTT1=
EXTT2=
EXTT3=
EXTT4=
EXTT5=
EXTT6=
EXTT7=
EXTT8=
EXTT9=
PLAYORDER=
